<svg width="8" height="8" viewBox="0 0 8 8" fill="none" xmlns="http://www.w3.org/2000/svg">
<path d="M4 8C3.20888 8 2.43552 7.76541 1.77772 7.32588C1.11992 6.88635 0.607234 6.26164 0.304484 5.53074C0.00173314 4.79983 -0.0774802 3.99556 0.0768607 3.21964C0.231202 2.44372 0.612165 1.73098 1.17157 1.17157C1.73098 0.612165 2.44372 0.231202 3.21964 0.0768607C3.99556 -0.0774802 4.79983 0.00173314 5.53074 0.304484C6.26164 0.607234 6.88635 1.11992 7.32588 1.77772C7.76541 2.43552 8 3.20888 8 4C7.99886 5.06052 7.57706 6.07727 6.82716 6.82716C6.07727 7.57706 5.06052 7.99886 4 8ZM4 0.666669C3.34073 0.666669 2.69626 0.862165 2.1481 1.22844C1.59994 1.59471 1.1727 2.1153 0.920403 2.72439C0.668111 3.33348 0.6021 4.0037 0.730718 4.6503C0.859335 5.29691 1.1768 5.89085 1.64298 6.35702C2.10915 6.8232 2.7031 7.14067 3.3497 7.26929C3.9963 7.3979 4.66653 7.33189 5.27561 7.0796C5.8847 6.82731 6.4053 6.40007 6.77157 5.8519C7.13784 5.30374 7.33334 4.65927 7.33334 4C7.33237 3.11624 6.98086 2.26896 6.35595 1.64405C5.73104 1.01914 4.88376 0.667639 4 0.666669Z" fill="white" fill-opacity="0.4"/>
<path d="M4.66668 6.33337H4.00001V4.00004H3.33334V3.33337H4.00001C4.17682 3.33337 4.34639 3.40361 4.47141 3.52864C4.59644 3.65366 4.66668 3.82323 4.66668 4.00004V6.33337Z" fill="white" fill-opacity="0.4"/>
<path d="M4 2.66663C4.27614 2.66663 4.5 2.44277 4.5 2.16663C4.5 1.89048 4.27614 1.66663 4 1.66663C3.72386 1.66663 3.5 1.89048 3.5 2.16663C3.5 2.44277 3.72386 2.66663 4 2.66663Z" fill="white" fill-opacity="0.4"/>
</svg>
