<svg xmlns="http://www.w3.org/2000/svg" xmlns:xlink="http://www.w3.org/1999/xlink" fill="none" version="1.1" width="14" height="10.106390953063965" viewBox="0 0 14 10.106390953063965"><g><path d="M4.52036,10.1064C4.12296,10.1066,3.74183,9.9486,3.46106,9.66736C3.46106,9.66736,0.258452,6.46594,0.258452,6.46594C-0.0861507,6.12122,-0.0861507,5.56244,0.258452,5.21773C0.603165,4.87313,1.16194,4.87313,1.50666,5.21773C1.50666,5.21773,4.52036,8.23143,4.52036,8.23143C4.52036,8.23143,12.4933,0.258452,12.4933,0.258452C12.8381,-0.0861507,13.3968,-0.0861507,13.7415,0.258452C14.0862,0.603165,14.0862,1.16194,13.7415,1.50666C13.7415,1.50666,5.57966,9.66736,5.57966,9.66736C5.29889,9.9486,4.91776,10.1066,4.52036,10.1064Z" fill="#2DC24E" fill-opacity="1"/></g></svg>