<svg xmlns="http://www.w3.org/2000/svg" xmlns:xlink="http://www.w3.org/1999/xlink" fill="none" version="1.1" width="5.392557144165039" height="12.88222074508667" viewBox="0 0 5.392557144165039 12.88222074508667"><g><path d="M2.995866534500122,0.31533073450012206Q2.996276534500122,0.3074640645001221,2.996276534500122,0.29958653450012207Q2.996276534500122,0.27003913450012207,2.990516534500122,0.24105943450012207Q2.9847465345001223,0.21207973450012207,2.973446534500122,0.18478153450012208Q2.962136534500122,0.15748353450012206,2.945716534500122,0.13291553450012206Q2.929306534500122,0.10834753450012208,2.908406534500122,0.08745453450012208Q2.887516534500122,0.06656153450012206,2.862946534500122,0.050145534500122074Q2.838376534500122,0.03372953450012206,2.811086534500122,0.02242253450012205Q2.783786534500122,0.011115534500122093,2.7548065345001223,0.005350534500122073Q2.725826534500122,-0.0004134654998779186,2.696276534500122,-0.0004134654998779186Q2.666726534500122,-0.0004134654998779186,2.637746534500122,0.005350534500122073Q2.608766534500122,0.011115534500122093,2.5814765345001223,0.02242253450012205Q2.554176534500122,0.03372953450012206,2.529606534500122,0.050145534500122074Q2.505036534500122,0.06656153450012206,2.484146534500122,0.08745453450012208Q2.4632565345001223,0.10834753450012208,2.446836534500122,0.13291553450012206Q2.430426534500122,0.15748353450012206,2.419116534500122,0.18478153450012208Q2.4078065345001223,0.21207973450012207,2.4020465345001223,0.24105943450012207Q2.3962765345001222,0.27003913450012207,2.3962765345001222,0.29958653450012207Q2.3962765345001222,0.3074640645001221,2.396696534500122,0.31533073450012206L2.396696534500122,11.859386534500121L0.5225605345001221,9.985236534500123Q0.47989153450012206,9.937836534500121,0.42162853450012205,9.911886534500121Q0.36336563450012205,9.885946534500123,0.29958653450012207,9.885946534500123Q0.27003913450012207,9.885946534500123,0.24105943450012207,9.891706534500122Q0.21207973450012207,9.897466534500122,0.18478153450012208,9.908776534500122Q0.15748353450012206,9.920086534500122,0.13291553450012206,9.936496534500122Q0.10834753450012208,9.952916534500122,0.08745453450012208,9.973806534500122Q0.06656153450012206,9.994706534500121,0.050145534500122074,10.019266534500122Q0.03372953450012206,10.043836534500121,0.02242253450012205,10.071136534500122Q0.011115534500122093,10.098436534500122,0.005350534500122073,10.127416534500123Q-0.0004134654998779186,10.156396534500121,-0.0004134654998779186,10.185946534500122Q-0.0004134654998779186,10.249716534500122,0.025529534500122075,10.307986534500122Q0.05147253450012207,10.366286534500123,0.09887253450012207,10.408886534500121L2.484436534500122,12.794486534500122L2.908116534500122,12.794486534500122L5.2936865345001225,10.408886534500121Q5.341086534500122,10.366286534500123,5.3670265345001225,10.307986534500122Q5.392966534500122,10.249716534500122,5.392966534500122,10.185946534500122Q5.392966534500122,10.156396534500121,5.387206534500122,10.127416534500123Q5.381436534500122,10.098436534500122,5.370136534500122,10.071136534500122Q5.358826534500122,10.043836534500121,5.342406534500122,10.019266534500122Q5.325996534500122,9.994706534500121,5.305106534500122,9.973806534500122Q5.284206534500122,9.952916534500122,5.259636534500122,9.936496534500122Q5.235076534500122,9.920086534500122,5.207776534500122,9.908776534500122Q5.180476534500122,9.897466534500122,5.151496534500122,9.891706534500122Q5.1225165345001225,9.885946534500123,5.092966534500122,9.885946534500123Q5.029186534500122,9.885946534500123,4.970926534500122,9.911886534500121Q4.912666534500122,9.937836534500121,4.869996534500122,9.985236534500123L2.995866534500122,11.859386534500121L2.995866534500122,0.31533073450012206Z" fill-rule="evenodd" fill="#CAEAE5" fill-opacity="1"/></g></svg>