<svg xmlns="http://www.w3.org/2000/svg" xmlns:xlink="http://www.w3.org/1999/xlink" fill="none" version="1.1" width="5.392558270364545" height="12.882221216518989" viewBox="0 0 5.392558270364545 12.882221216518989"><g transform="matrix(-1,8.742277657347586e-8,-8.742277657347586e-8,-1,10.185944519356294,25.16526802831274)"><path d="M7.789251709673736,12.598378436777235Q7.7896617096737355,12.590511766777235,7.7896617096737355,12.582634236777235Q7.7896617096737355,12.553086836777235,7.783901709673736,12.524107136777236Q7.778131709673737,12.495127436777235,7.7668317096737365,12.467829236777234Q7.7555217096737366,12.440531236777234,7.7391017096737365,12.415963236777234Q7.722691709673736,12.391395236777235,7.701791709673737,12.370502236777234Q7.680901709673736,12.349609236777235,7.656331709673736,12.333193236777236Q7.631761709673736,12.316777236777234,7.604471709673736,12.305470236777234Q7.5771717096737365,12.294163236777235,7.548191709673736,12.288398236777235Q7.519211709673736,12.282634236777234,7.489661709673737,12.282634236777234Q7.460111709673736,12.282634236777234,7.4311317096737355,12.288398236777235Q7.402151709673737,12.294163236777235,7.374861709673736,12.305470236777234Q7.347561709673736,12.316777236777234,7.322991709673737,12.333193236777236Q7.298421709673736,12.349609236777235,7.277531709673736,12.370502236777234Q7.256641709673737,12.391395236777235,7.240221709673737,12.415963236777234Q7.223811709673736,12.440531236777234,7.212501709673736,12.467829236777234Q7.201191709673736,12.495127436777235,7.195431709673736,12.524107136777236Q7.189661709673736,12.553086836777235,7.189661709673736,12.582634236777235Q7.189661709673736,12.590511766777235,7.190081709673736,12.598378436777235L7.190081709673736,24.142434236777234L5.315945709673736,22.268284236777234Q5.273276709673736,22.220884236777234,5.215013709673737,22.194934236777236Q5.156750809673736,22.168994236777237,5.092971709673736,22.168994236777237Q5.063424309673736,22.168994236777237,5.034444609673736,22.174754236777233Q5.005464909673736,22.180514236777235,4.9781667096737365,22.191824236777236Q4.9508687096737365,22.203134236777235,4.926300709673736,22.219544236777235Q4.901732709673736,22.235964236777235,4.880839709673737,22.256854236777237Q4.8599467096737365,22.277754236777234,4.843530709673736,22.302314236777235Q4.827114709673737,22.326884236777232,4.815807709673736,22.354184236777236Q4.804500709673736,22.381484236777233,4.798735709673736,22.410464236777237Q4.792971709673736,22.439444236777234,4.792971709673736,22.468994236777235Q4.792971709673736,22.532764236777233,4.818914709673736,22.591034236777233Q4.844857709673736,22.649334236777236,4.8922577096737365,22.691934236777236L7.277821709673736,25.077534236777232L7.701501709673736,25.077534236777232L10.087071709673737,22.691934236777236Q10.134471709673736,22.649334236777236,10.160411709673737,22.591034236777233Q10.186351709673737,22.532764236777233,10.186351709673737,22.468994236777235Q10.186351709673737,22.439444236777234,10.180591709673736,22.410464236777237Q10.174821709673736,22.381484236777233,10.163521709673736,22.354184236777236Q10.152211709673736,22.326884236777232,10.135791709673736,22.302314236777235Q10.119381709673736,22.277754236777234,10.098491709673736,22.256854236777237Q10.077591709673737,22.235964236777235,10.053021709673736,22.219544236777235Q10.028461709673735,22.203134236777235,10.001161709673736,22.191824236777236Q9.973861709673736,22.180514236777235,9.944881709673737,22.174754236777233Q9.915901709673737,22.168994236777237,9.886351709673736,22.168994236777237Q9.822571709673735,22.168994236777237,9.764311709673736,22.194934236777236Q9.706051709673737,22.220884236777234,9.663381709673736,22.268284236777234L7.789251709673736,24.142434236777234L7.789251709673736,12.598378436777235Z" fill-rule="evenodd" fill="#CAEAE5" fill-opacity="1"/></g></svg>