<svg xmlns="http://www.w3.org/2000/svg" xmlns:xlink="http://www.w3.org/1999/xlink" fill="none" version="1.1" width="11.2799072265625" height="10.8133544921875" viewBox="0 0 11.2799072265625 10.8133544921875"><g><path d="M1.26528,3.7812C0.358983,6.1875,1.60901,8.90625,4.04651,9.7812C4.14026,9.84375,4.23401,9.9687,4.23401,10.0625L4.23401,10.5C4.23401,10.5625,4.23401,10.5938,4.20273,10.625C4.17153,10.75,4.04651,10.8125,3.92148,10.75C2.17151,10.1875,0.827733,8.8437,0.265233,7.09373C-0.672267,4.125,0.952758,0.9687,3.92148,0.0312C3.95276,0,4.01523,0,4.04651,0C4.17153,0.0312,4.23401,0.12495,4.23401,0.249975L4.23401,0.68745C4.23401,0.84375,4.17153,0.9375,4.04651,0.999975C2.76528,1.46873,1.73403,2.4687,1.26528,3.7812ZM7.07717,0.157132C7.10837,0.0321067,7.2334,-0.0303683,7.35842,0.0321067C9.07712,0.594607,10.4522,1.93838,11.0147,3.71963C11.9522,6.68836,10.3271,9.84466,7.35842,10.7822C7.32715,10.8134,7.26468,10.8134,7.2334,10.8134C7.10837,10.7822,7.0459,10.6884,7.0459,10.5634L7.0459,10.1259C7.0459,9.96961,7.10837,9.87586,7.2334,9.81338C8.51462,9.34463,9.54587,8.34466,10.0146,7.03216C10.9209,4.62586,9.6709,1.90711,7.2334,1.03216C7.13965,0.969607,7.0459,0.844657,7.0459,0.719632L7.0459,0.282157C7.0459,0.219607,7.0459,0.188407,7.07717,0.157132Z" fill-rule="evenodd" fill="#FFFFFF" fill-opacity="1"/></g></svg>