<svg xmlns="http://www.w3.org/2000/svg" xmlns:xlink="http://www.w3.org/1999/xlink" fill="none" version="1.1" width="15.169811248779297" height="15.169811248779297" viewBox="0 0 15.169811248779297 15.169811248779297"><g transform="matrix(-1,0,0,1,30.339622497558594,0)"><path d="M15.801913248779297,1.07895C15.801913248779297,1.07895,15.801913248779297,6.32075,15.801913248779297,6.32075C15.801913248779297,6.32075,15.169811248779297,6.32075,15.169811248779297,6.32075C15.169811248779297,6.32075,15.169811248779297,0.948113,15.169811248779297,0.948113C15.169811248779297,0.425387,15.595215248779297,0,16.1179642487793,0C16.1179642487793,0,21.490831248779298,0,21.490831248779298,0C21.490831248779298,0,21.490831248779298,0.632075,21.490831248779298,0.632075C21.490831248779298,0.632075,16.248811248779298,0.632075,16.248811248779298,0.632075C16.248811248779298,0.632075,25.191111248779297,9.57341,25.191111248779297,9.57341C25.191111248779297,9.57341,24.744261248779296,10.0203,24.744261248779296,10.0203C24.744261248779296,10.0203,15.801913248779297,1.07895,15.801913248779297,1.07895ZM24.0192312487793,2.5283C22.848581248779297,2.5283,21.751251248779297,2.84876,20.810051248779295,3.40562C20.810051248779295,3.40562,21.273381248779298,3.8683,21.273381248779298,3.8683C22.088161248779297,3.41763,23.0243112487793,3.16038,24.0192312487793,3.16038C27.156311248779296,3.16038,29.708111248779296,5.7127,29.708111248779296,8.84906C29.708111248779296,11.9854,27.156311248779296,14.5377,24.0192312487793,14.5377C20.882111248779296,14.5377,18.330321248779295,11.9854,18.330321248779295,8.84906C18.330321248779295,7.85417,18.587581248779298,6.91807,19.038271248779296,6.10332C19.038271248779296,6.10332,18.574941248779297,5.64001,18.574941248779297,5.64001C18.018061248779297,6.58117,17.697581248779297,7.67845,17.697581248779297,8.84906C17.697581248779297,12.3343,20.533191248779296,15.1698,24.018601248779298,15.1698C27.504011248779296,15.1698,30.3396112487793,12.3343,30.3396112487793,8.84906C30.3396112487793,5.36379,27.504611248779298,2.5283,24.0192312487793,2.5283Z" fill="#CAEAE5" fill-opacity="1"/></g></svg>