<svg xmlns="http://www.w3.org/2000/svg" xmlns:xlink="http://www.w3.org/1999/xlink" fill="none" version="1.1" width="20" height="20" viewBox="0 0 20 20"><g><path d="M9.11583,5.4675C9.11583,5.4675,6.96833,3.32,6.96833,3.32C6.96833,3.32,7.5575,2.73083,7.5575,2.73083C7.5575,2.73083,9.58333,4.75583,9.58333,4.75583C9.58333,4.75583,9.58333,0,9.58333,0C9.58333,0,10.4167,0,10.4167,0C10.4167,0,10.4167,4.75583,10.4167,4.75583C10.4167,4.75583,12.4583,2.71417,12.4583,2.71417C12.4583,2.71417,13.0475,3.30333,13.0475,3.30333C13.0475,3.30333,10.8833,5.46667,10.8833,5.46667C10.64,5.71,10.32,5.83167,9.99917,5.83167C9.67833,5.83167,9.35917,5.71,9.115,5.46667C9.115,5.46667,9.11583,5.4675,9.11583,5.4675ZM18.3333,8.33333C18.3333,8.33333,18.3333,16.6667,18.3333,16.6667C18.3333,16.6667,20,16.6667,20,16.6667C20,16.6667,20,20,20,20C20,20,11.2542,20,11.2542,20C12.1375,20,12.9392,19.68,13.5808,19.1667C13.5808,19.1667,19.1675,19.1667,19.1675,19.1667C19.1675,19.1667,19.1675,17.5,19.1675,17.5C19.1675,17.5,14.7783,17.5,14.7783,17.5C14.8733,17.2342,14.9375,16.9558,14.9692,16.6667C14.9692,16.6667,15,16.6667,15,16.6667C15,16.6667,15,8.33333,15,8.33333C15,8.33333,10.4167,8.33333,10.4167,8.33333C10.4167,8.33333,10.4167,10,10.4167,10C10.4167,10,11.2542,10,11.2542,10C12.4008,10,13.3333,10.9325,13.3333,12.0792C13.3333,12.0792,13.3333,12.5,13.3333,12.5C13.3333,12.5,12.5,12.5,12.5,12.5C12.5,12.5,12.5,12.0792,12.5,12.0792C12.5,11.3925,11.9408,10.8333,11.2542,10.8333C11.2542,10.8333,8.74583,10.8333,8.74583,10.8333C8.05917,10.8333,7.5,11.3925,7.5,12.0792C7.5,12.6325,7.87167,13.125,8.40333,13.2775C8.40333,13.2775,11.825,14.255,11.825,14.255C12.7125,14.5092,13.3333,15.3308,13.3333,16.2542C13.3333,17.4008,12.4008,18.3333,11.2542,18.3333C11.2542,18.3333,10.4167,18.3333,10.4167,18.3333C10.4167,18.3333,10.4167,20,10.4167,20C10.4167,20,9.58333,20,9.58333,20C9.58333,20,9.58333,18.3333,9.58333,18.3333C9.58333,18.3333,8.74583,18.3333,8.74583,18.3333C7.59917,18.3333,6.66667,17.4008,6.66667,16.2542C6.66667,16.2542,6.66667,15.8333,6.66667,15.8333C6.66667,15.8333,7.5,15.8333,7.5,15.8333C7.5,15.8333,7.5,16.2542,7.5,16.2542C7.5,16.9408,8.05917,17.5,8.74583,17.5C8.74583,17.5,11.2542,17.5,11.2542,17.5C11.9408,17.5,12.5,16.9408,12.5,16.2542C12.5,15.7008,12.1283,15.2083,11.5958,15.0558C11.5958,15.0558,8.175,14.0783,8.175,14.0783C7.2875,13.8242,6.66667,13.0025,6.66667,12.0792C6.66667,10.9325,7.59917,10,8.74583,10C8.74583,10,9.58333,10,9.58333,10C9.58333,10,9.58333,8.33333,9.58333,8.33333C9.58333,8.33333,5,8.33333,5,8.33333C5,8.33333,5,16.6667,5,16.6667C5,16.6667,5.03083,16.6667,5.03083,16.6667C5.06333,16.9558,5.1275,17.2342,5.22167,17.5C5.22167,17.5,0.833333,17.5,0.833333,17.5C0.833333,17.5,0.833333,19.1667,0.833333,19.1667C0.833333,19.1667,6.42,19.1667,6.42,19.1667C7.06083,19.68,7.86333,20,8.74667,20C8.74667,20,0,20,0,20C0,20,0,16.6667,0,16.6667C0,16.6667,1.66667,16.6667,1.66667,16.6667C1.66667,16.6667,1.66667,8.33333,1.66667,8.33333C1.66667,8.33333,0,8.33333,0,8.33333C0,8.33333,0,6.59083,0,6.59083C0,5.67583,0.499167,4.835,1.3025,4.39583C1.3025,4.39583,4.68417,2.55917,4.68417,2.55917C4.68417,2.55917,5.30833,3.18333,5.30833,3.18333C5.30833,3.18333,1.70167,5.1275,1.70167,5.1275C1.16583,5.42,0.833333,5.98083,0.833333,6.59083C0.833333,6.59083,0.833333,7.5,0.833333,7.5C0.833333,7.5,19.1667,7.5,19.1667,7.5C19.1667,7.5,19.1667,6.59083,19.1667,6.59083C19.1667,5.98,18.8342,5.41917,18.2983,5.1275C18.2983,5.1275,14.6925,3.1825,14.6925,3.1825C14.6925,3.1825,15.3167,2.55833,15.3167,2.55833C15.3167,2.55833,18.6975,4.39583,18.6975,4.39583C19.5017,4.83333,20,5.675,20,6.59083C20,6.59083,20,8.33333,20,8.33333C20,8.33333,18.3333,8.33333,18.3333,8.33333ZM4.16667,8.33333C4.16667,8.33333,2.5,8.33333,2.5,8.33333C2.5,8.33333,2.5,16.6667,2.5,16.6667C2.5,16.6667,4.16667,16.6667,4.16667,16.6667C4.16667,16.6667,4.16667,8.33333,4.16667,8.33333ZM17.5,8.33333C17.5,8.33333,15.8333,8.33333,15.8333,8.33333C15.8333,8.33333,15.8333,16.6667,15.8333,16.6667C15.8333,16.6667,17.5,16.6667,17.5,16.6667C17.5,16.6667,17.5,8.33333,17.5,8.33333Z" fill="#425451" fill-opacity="1"/></g></svg>