<svg width="14" height="12" viewBox="0 0 14 12" fill="none" xmlns="http://www.w3.org/2000/svg">
<path fill-rule="evenodd" clip-rule="evenodd" d="M7 4.34924C6.08662 4.34924 5.34917 5.0867 5.34917 6.00008C5.34917 6.91345 6.08662 7.65091 7 7.65091C7.91338 7.65091 8.65083 6.91345 8.65083 6.00008C8.65083 5.0867 7.91338 4.34924 7 4.34924ZM4.47417 6.00008C4.47417 4.60345 5.60338 3.47424 7 3.47424C8.39663 3.47424 9.52583 4.60345 9.52583 6.00008C9.52583 7.3967 8.39663 8.52591 7 8.52591C5.60338 8.52591 4.47417 7.3967 4.47417 6.00008Z" fill="#E1E1E1"/>
<path fill-rule="evenodd" clip-rule="evenodd" d="M1.31687 4.24827C2.71157 2.05589 4.75535 0.732544 7 0.732544C9.24475 0.732544 11.2886 2.05601 12.6833 4.24856C13.0012 4.74693 13.1454 5.3853 13.1454 5.99713C13.1454 6.60895 13.0012 7.24733 12.6833 7.74569C11.2886 9.93824 9.24475 11.2617 7 11.2617C4.75525 11.2617 2.7114 9.93824 1.31669 7.74569C0.998786 7.24733 0.854584 6.60895 0.854584 5.99713C0.854584 5.38518 0.998841 4.74668 1.31687 4.24827ZM7 1.60754C5.12642 1.60754 3.33194 2.71074 2.05498 4.71819L2.05461 4.71877C1.84777 5.04282 1.72958 5.50669 1.72958 5.99713C1.72958 6.48757 1.84777 6.95144 2.05461 7.27549L2.05498 7.27606C3.33194 9.28351 5.12642 10.3867 7 10.3867C8.87358 10.3867 10.6681 9.28351 11.945 7.27606L11.9454 7.27549C12.1522 6.95144 12.2704 6.48757 12.2704 5.99713C12.2704 5.50669 12.1522 5.04282 11.9454 4.71877L11.945 4.71819C10.6681 2.71074 8.87358 1.60754 7 1.60754Z" fill="#E1E1E1"/>
</svg>
