<svg width="15" height="16" viewBox="0 0 15 16" fill="none" xmlns="http://www.w3.org/2000/svg">
<g filter="url(#filter0_d_1_756)">
<path d="M8.79904 14.6469C7.99519 15.1177 7.00481 15.1177 6.20096 14.6469L2.04904 12.2148C1.24519 11.744 0.75 10.8738 0.75 9.93204V5.06796C0.75 4.12624 1.24519 3.25605 2.04904 2.78518L6.20096 0.353147C7.00481 -0.117716 7.99519 -0.117716 8.79904 0.353147L12.951 2.78518C13.7548 3.25605 14.25 4.12624 14.25 5.06796V9.93204C14.25 10.8738 13.7548 11.744 12.951 12.2148L8.79904 14.6469Z" fill="url(#paint0_linear_1_756)"/>
<path d="M8.2936 13.784C7.80191 14.072 7.19809 14.072 6.7064 13.784L2.55447 11.352C2.06106 11.0629 1.75 10.5235 1.75 9.93204V5.06796C1.75 4.47649 2.06106 3.93707 2.55447 3.64805L6.70639 1.21601C7.19809 0.927996 7.80191 0.927996 8.2936 1.21601L12.4455 3.64805C12.9389 3.93707 13.25 4.47649 13.25 5.06796V9.93204C13.25 10.5235 12.9389 11.0629 12.4455 11.352L8.2936 13.784Z" stroke="white" stroke-opacity="0.4" stroke-width="2"/>
</g>
<path d="M7.34878 6.09218C7.41213 5.96927 7.58787 5.96927 7.65122 6.09218L8.05369 6.87304C8.0699 6.90449 8.09551 6.9301 8.12696 6.94631L8.90782 7.34878C9.03073 7.41213 9.03073 7.58787 8.90782 7.65122L8.12696 8.05369C8.09551 8.0699 8.0699 8.09551 8.05369 8.12696L7.65122 8.90782C7.58787 9.03073 7.41213 9.03073 7.34878 8.90782L6.94631 8.12696C6.9301 8.09551 6.90449 8.0699 6.87304 8.05369L6.09218 7.65122C5.96927 7.58787 5.96927 7.41213 6.09218 7.34878L6.87304 6.94631C6.90449 6.9301 6.9301 6.90449 6.94631 6.87304L7.34878 6.09218Z" fill="url(#paint1_angular_1_756)"/>
<path d="M7.34878 6.09218C7.41213 5.96927 7.58787 5.96927 7.65122 6.09218L8.05369 6.87304C8.0699 6.90449 8.09551 6.9301 8.12696 6.94631L8.90782 7.34878C9.03073 7.41213 9.03073 7.58787 8.90782 7.65122L8.12696 8.05369C8.09551 8.0699 8.0699 8.09551 8.05369 8.12696L7.65122 8.90782C7.58787 9.03073 7.41213 9.03073 7.34878 8.90782L6.94631 8.12696C6.9301 8.09551 6.90449 8.0699 6.87304 8.05369L6.09218 7.65122C5.96927 7.58787 5.96927 7.41213 6.09218 7.34878L6.87304 6.94631C6.90449 6.9301 6.9301 6.90449 6.94631 6.87304L7.34878 6.09218Z" fill="url(#paint2_angular_1_756)" fill-opacity="0.5"/>
<path d="M8.09565 5.86311C7.84612 5.37897 7.15388 5.37896 6.90435 5.86311L6.5502 6.5502L5.86311 6.90435C5.37897 7.15388 5.37896 7.84612 5.86311 8.09565L6.5502 8.4498L6.90435 9.13689C7.15388 9.62104 7.84612 9.62104 8.09565 9.13689L8.4498 8.4498L9.13689 8.09565C9.62104 7.84612 9.62104 7.15388 9.13689 6.90435L8.4498 6.5502L8.09565 5.86311Z" stroke="black" stroke-opacity="0.16"/>
<path fill-rule="evenodd" clip-rule="evenodd" d="M0.927765 10.8903L10.4802 1.33789L12.951 2.78516C13.4704 3.08943 13.861 3.56045 14.0723 4.10976L4.51993 13.6621L2.04904 12.2148C1.52965 11.9106 1.13912 11.4396 0.927765 10.8903Z" fill="white" fill-opacity="0.32"/>
<defs>
<filter id="filter0_d_1_756" x="0.75" y="0" width="13.5" height="16" filterUnits="userSpaceOnUse" color-interpolation-filters="sRGB">
<feFlood flood-opacity="0" result="BackgroundImageFix"/>
<feColorMatrix in="SourceAlpha" type="matrix" values="0 0 0 0 0 0 0 0 0 0 0 0 0 0 0 0 0 0 127 0" result="hardAlpha"/>
<feOffset dy="1"/>
<feComposite in2="hardAlpha" operator="out"/>
<feColorMatrix type="matrix" values="0 0 0 0 0.0201802 0 0 0 0 0.16 0 0 0 0 0.29982 0 0 0 1 0"/>
<feBlend mode="normal" in2="BackgroundImageFix" result="effect1_dropShadow_1_756"/>
<feBlend mode="normal" in="SourceGraphic" in2="effect1_dropShadow_1_756" result="shape"/>
</filter>
<linearGradient id="paint0_linear_1_756" x1="7.50018" y1="15.4078" x2="7.50018" y2="-0.407788" gradientUnits="userSpaceOnUse">
<stop stop-color="#0078F0"/>
<stop offset="1" stop-color="#CFE3F7"/>
</linearGradient>
<radialGradient id="paint1_angular_1_756" cx="0" cy="0" r="1" gradientUnits="userSpaceOnUse" gradientTransform="translate(7.5 7.5) rotate(90) scale(1.5)">
<stop stop-color="white"/>
<stop offset="1" stop-color="#E0E0E0"/>
</radialGradient>
<radialGradient id="paint2_angular_1_756" cx="0" cy="0" r="1" gradientUnits="userSpaceOnUse" gradientTransform="translate(7.5 7.5) rotate(-180) scale(1.5)">
<stop stop-color="white"/>
<stop offset="1" stop-color="#E0E0E0"/>
</radialGradient>
</defs>
</svg>
