<svg xmlns="http://www.w3.org/2000/svg" xmlns:xlink="http://www.w3.org/1999/xlink" fill="none" version="1.1" width="91.33203125" height="45.80244445800781" viewBox="0 0 91.33203125 45.80244445800781"><g><path d="M67.0005,5.2899C71.0003,7.40323,74.6993,10.1178,77.9568,13.3753C86.5208,21.9393,91.332,33.5546,91.332,45.666L79.9155,45.666C79.9155,36.5825,76.3071,27.871,69.8841,21.448C67.7491,19.3129,65.3612,17.4889,62.7908,16.005L62.7908,16.0051C61.9769,15.5352,61.146,15.1001,60.3003,14.7004C59.0599,14.1142,57.7851,13.603,56.483,13.1695C53.0228,12.0178,49.3867,11.4213,45.7102,11.4165L45.666,11.4165C21.2265,21.6694,21.0083,21.8937,20.7936,22.1205C19.0186,23.9955,17.4537,26.0732,16.1346,28.3189C13.045,33.5785,11.4165,39.5673,11.4165,45.666C11.4165,45.7001,11.4166,45.7342,11.4167,45.7683L0.000203855,45.8024C0.0000679752,45.757,3.39683e-11,45.7115,0,45.666C0,33.5546,4.81123,21.9393,13.3753,13.3753C21.9393,4.81122,33.5546,0,45.666,6.45579e-12C45.6857,6.45579e-12,45.7053,0.0000126845,45.7249,0.0000380268C50.9734,0.00681023,56.1602,0.918048,61.0634,2.67408C63.0965,3.40221,65.0808,4.27558,67.0005,5.28996L67.0005,5.2899Z" fill-rule="evenodd" fill="#34D399" fill-opacity="1"/></g></svg>